<?xml version="1.0" encoding="utf-8"?>
<!-- Generator: Adobe Illustrator 16.0.3, SVG Export Plug-In . SVG Version: 6.00 Build 0)  -->
<!DOCTYPE svg PUBLIC "-//W3C//DTD SVG 1.1//EN" "http://www.w3.org/Graphics/SVG/1.1/DTD/svg11.dtd">
<svg version="1.1" id="Layer_1" xmlns="http://www.w3.org/2000/svg" xmlns:xlink="http://www.w3.org/1999/xlink" x="0px" y="0px"
	 width="100px" height="100px" viewBox="0 0 100 100" enable-background="new 0 0 100 100" xml:space="preserve">
<path fill="#ACACAC" d="M20.303,93.928V6.001h32.806c8.616,0,4.47,21.148,4.47,21.148S77.5,22.144,77.757,31.6v28.542
	c2.015,0.036,3.954,0.345,5.8,0.887V23.658L62.397,1.754L60.699,0H14.501v99.93h47.688c-1.782-1.723-3.287-3.749-4.443-6.002H20.303
	z M77.229,64.341c-10.045,0-18.187,8.43-18.187,18.827c0,10.389,8.142,18.824,18.187,18.824c10.05,0,18.194-8.436,18.194-18.824
	C95.423,72.771,87.278,64.341,77.229,64.341z M80.497,86.552v10.145h-6.536V86.552h-9.797v-6.774h9.797V69.633h6.536v10.145h9.809
	v6.774H80.497z"/>
</svg>
