<?xml version="1.0" encoding="utf-8"?>
<!-- Generator: Adobe Illustrator 16.0.3, SVG Export Plug-In . SVG Version: 6.00 Build 0)  -->
<!DOCTYPE svg PUBLIC "-//W3C//DTD SVG 1.1//EN" "http://www.w3.org/Graphics/SVG/1.1/DTD/svg11.dtd">
<svg version="1.1" id="Layer_1" xmlns="http://www.w3.org/2000/svg" xmlns:xlink="http://www.w3.org/1999/xlink" x="0px" y="0px"
	 width="100px" height="100px" viewBox="0 0 100 100" enable-background="new 0 0 100 100" xml:space="preserve">
<path fill="#ACACAC" d="M88.099,25.505c-1.088-0.681-2.339-1.039-3.618-1.039c-2.368,0-4.533,1.196-5.787,3.199l-0.066,0.108
	l-0.05,0.108l-7.159,15.488c0-0.024-0.004-0.041-0.004-0.058l4.57-25.692c0.656-3.706-1.824-7.254-5.525-7.918
	c-0.395-0.066-0.798-0.1-1.201-0.1c-3.311,0-6.136,2.368-6.713,5.625l-4.321,24.279L55.706,9.194
	c-0.291-3.506-3.273-6.257-6.792-6.257c-0.191,0-0.382,0.008-0.569,0.025c-3.755,0.316-6.552,3.614-6.24,7.362l2.588,31.184
	c0.042,1.097,0.021,1.895-0.025,2.484c-0.336-0.523-0.669-1.146-0.881-1.753c-0.1-0.282-0.204-0.54-0.312-0.772l-7.707-25.102
	c-0.889-2.883-3.511-4.828-6.527-4.828c-0.677,0-1.35,0.108-2.002,0.308c-1.745,0.532-3.174,1.712-4.026,3.324
	c-0.856,1.612-1.03,3.457-0.494,5.202l7.827,25.492c3.12,10.195,1.882,12.986,1.429,13.602c-0.179,0.232-0.357,0.324-0.665,0.324
	c-0.59,0-1.4-0.349-2.119-0.914l-9.286-7.287c-1.226-1.03-2.775-1.596-4.375-1.596c-2.015,0-3.917,0.881-5.218,2.418
	c-1.176,1.396-1.74,3.158-1.587,4.978c0.154,1.819,1.001,3.465,2.397,4.645l16.011,13.536c3.768,6.68,7.939,10.087,9.809,11.383
	l0.066,8.201l0.017,1.911h32.168l0.025-1.895l0.112-8.176c7.429-8.957,7.482-20.772,7.391-23.424l13.598-28.757
	C92.236,31.637,91.252,27.482,88.099,25.505z"/>
</svg>
