<?xml version="1.0" encoding="utf-8"?>
<!-- Generator: Adobe Illustrator 16.0.3, SVG Export Plug-In . SVG Version: 6.00 Build 0)  -->
<!DOCTYPE svg PUBLIC "-//W3C//DTD SVG 1.1//EN" "http://www.w3.org/Graphics/SVG/1.1/DTD/svg11.dtd">
<svg version="1.1" id="Layer_1" xmlns="http://www.w3.org/2000/svg" xmlns:xlink="http://www.w3.org/1999/xlink" x="0px" y="0px"
	 width="100px" height="100px" viewBox="0 0 100 100" enable-background="new 0 0 100 100" xml:space="preserve">
<g id="Your_Icon">
	<path fill="#ACACAC" d="M99.975,54.18c-0.147-1.506-0.886-2.889-2.053-3.848L58.189,17.674c-4.158-3.418-9.41-5.301-14.786-5.301
		c-7.002,0-13.567,3.101-18.009,8.506c-3.953,4.808-5.795,10.866-5.19,17.061c0.223,2.273,0.768,4.463,1.603,6.521
		c-3.377,1.835-6.923,2.849-10.085,2.849c-1.805,0-5.04-0.352-6.437-2.716C2.989,40.71,7.072,33.87,14.199,29.657
		c1.96-1.158,3.994-2.024,5.992-2.587c0.705-2.011,1.654-3.775,2.652-5.265c-3.616,0.405-7.449,1.732-11.014,3.84
		C2.206,31.333-2.431,40.697,1.272,46.964c1.908,3.228,5.618,5.007,10.45,5.007c3.911,0,8.226-1.197,12.266-3.383
		c1.26,1.889,2.808,3.604,4.611,5.085l39.732,32.658c1.06,0.871,2.34,1.296,3.612,1.296c1.646,0,3.277-0.71,4.404-2.079
		L98.703,58.35C99.664,57.182,100.12,55.682,99.975,54.18z M31.949,33.333c-1.703-1.479-2.351-3.732-1.854-5.799
		c0.588,0.379,1.108,0.871,1.488,1.516C32.381,30.398,32.31,31.958,31.949,33.333z M40.328,32.635
		c-1.022,1.243-2.449,1.957-3.934,2.11c0.833-2.959,0.573-5.745-0.799-8.067c-0.679-1.146-1.59-2.104-2.692-2.87
		c2.051-1.162,4.688-1.019,6.618,0.568C42.025,26.434,42.385,30.131,40.328,32.635z M71.104,74.076
		c-0.307,0.375-0.752,0.566-1.201,0.566c-0.346,0-0.694-0.115-0.983-0.354L42.583,52.643c-0.663-0.543-0.758-1.521-0.214-2.187
		c0.545-0.662,1.523-0.758,2.187-0.212l26.334,21.646C71.555,72.436,71.648,73.414,71.104,74.076z M76.282,67.863
		c-0.308,0.375-0.753,0.566-1.201,0.566c-0.347,0-0.696-0.115-0.985-0.354L47.759,46.43c-0.662-0.544-0.758-1.522-0.213-2.187
		c0.544-0.662,1.523-0.758,2.186-0.213l26.336,21.647C76.73,66.223,76.826,67.201,76.282,67.863z M81.46,61.65
		c-0.308,0.373-0.752,0.566-1.201,0.566c-0.347,0-0.696-0.117-0.985-0.354L52.938,40.217c-0.662-0.544-0.758-1.523-0.213-2.186
		c0.545-0.663,1.522-0.758,2.187-0.214l26.335,21.646C81.909,60.009,82.004,60.988,81.46,61.65z M86.639,55.438
		c-0.309,0.375-0.752,0.567-1.203,0.567c-0.346,0-0.694-0.116-0.983-0.354L58.116,34.004c-0.663-0.544-0.759-1.523-0.216-2.187
		c0.547-0.662,1.524-0.759,2.188-0.214L86.424,53.25C87.087,53.796,87.182,54.773,86.639,55.438z"/>
</g>
</svg>
