<?xml version="1.0" encoding="utf-8"?>
<!-- Generator: Adobe Illustrator 16.0.3, SVG Export Plug-In . SVG Version: 6.00 Build 0)  -->
<!DOCTYPE svg PUBLIC "-//W3C//DTD SVG 1.1//EN" "http://www.w3.org/Graphics/SVG/1.1/DTD/svg11.dtd">
<svg version="1.1" id="Layer_1" xmlns="http://www.w3.org/2000/svg" xmlns:xlink="http://www.w3.org/1999/xlink" x="0px" y="0px"
	 width="100px" height="100px" viewBox="0 0 100 100" enable-background="new 0 0 100 100" xml:space="preserve">
<path d="M68.87,71.958h-4.525V91.74c0.03,3.504,4.528,3.504,4.525,0V71.958L68.87,71.958z"/>
<path d="M63.506,71.958h-4.526V91.74c0.019,3.478,4.517,3.478,4.526,0V71.958L63.506,71.958z"/>
<path d="M41.265,71.959h-4.292V91.74c0.026,3.504,4.294,3.504,4.292,0V71.959L41.265,71.959z"/>
<path d="M36.228,71.959h-4.291V91.74c0.016,3.478,4.284,3.478,4.291,0V71.959L36.228,71.959z"/>
<path d="M80.146,33.667H22.087c-6.142,0.02-10.585,4.049-10.587,8.888v48.664c-0.011,4.94,4.779,8.799,10.587,8.782h58.119
	c5.781,0.017,10.497-3.618,10.461-8.782V42.554C90.689,37.657,86.052,33.685,80.146,33.667z M86.17,95.649H16.468V37.647h69.697
	v58.002H86.17z"/>
<path d="M61.729,3.281c-0.029-4.349,6.279-4.399,6.313,0l-0.11,13.25l3.415-4.146c2.337-2.587,6.458,0.996,3.926,3.89l-8.224,9.798
	c-1.318,1.312-3.007,1.303-4.293,0l-8.185-9.836c-2.556-2.893,1.603-6.517,3.889-3.891l3.378,4.185L61.729,3.281L61.729,3.281z"/>
<path d="M32.523,23.851c-0.027,4.374,6.304,4.424,6.336,0l-0.073-13.298l3.389,4.198c2.348,2.57,6.484-1.027,3.941-3.94
	l-8.251-9.835c-1.322-1.305-3.019-1.296-4.31,0l-8.215,9.873c-2.563,2.913,1.611,6.55,3.906,3.941l3.389-4.236L32.523,23.851
	L32.523,23.851z"/>
<path d="M71.559,70.489c0.012,1.187-0.844,2.026-1.768,2.009c0,0-11.825,0.018-11.87,0c-0.899,0.018-1.767-0.834-1.763-2.009V55.858
	c-0.007-1.675,1.176-2.823,2.47-2.807c-0.019-0.017,10.457,0,10.457,0c1.415-0.017,2.485,1.261,2.472,2.807v14.631H71.559z"/>
<path d="M63.916,51.852c1.851,0,3.361-1.721,3.348-3.812c0.017-2.15-1.497-3.87-3.348-3.874c-1.875,0.005-3.388,1.726-3.409,3.874
	C60.528,50.131,62.041,51.852,63.916,51.852L63.916,51.852z"/>
<path d="M63.916,48.04"/>
<path d="M43.995,70.49c0.015,1.185-0.798,2.025-1.671,2.008c0,0-11.215,0.018-11.256,0c-0.855,0.018-1.679-0.833-1.673-2.008V55.858
	c-0.006-1.675,1.114-2.823,2.341-2.807c-0.014-0.017,9.92,0,9.92,0c1.339-0.017,2.355,1.26,2.34,2.807V70.49L43.995,70.49z"/>
<path d="M36.751,51.852c1.758,0,3.19-1.721,3.178-3.813c0.013-2.149-1.42-3.869-3.178-3.873c-1.78,0.005-3.212,1.727-3.231,3.873
	C33.538,50.131,34.971,51.852,36.751,51.852L36.751,51.852z"/>
<path d="M36.751,48.039"/>
</svg>
