<?xml version="1.0" encoding="utf-8"?>
<!-- Generator: Adobe Illustrator 16.0.3, SVG Export Plug-In . SVG Version: 6.00 Build 0)  -->
<!DOCTYPE svg PUBLIC "-//W3C//DTD SVG 1.1//EN" "http://www.w3.org/Graphics/SVG/1.1/DTD/svg11.dtd">
<svg version="1.1" id="Layer_1" xmlns="http://www.w3.org/2000/svg" xmlns:xlink="http://www.w3.org/1999/xlink" x="0px" y="0px"
	 width="100px" height="100px" viewBox="0 0 100 100" enable-background="new 0 0 100 100" xml:space="preserve">
<path fill="#ACACAC" d="M24.549,67.508L3.294,99.551l31.967-21.41c-1.975-1.617-3.914-3.365-5.801-5.25
	C27.72,71.151,26.078,69.342,24.549,67.508z M88.295,14.604c-9.252-9.261-20.11-13.41-24.254-9.261
	c-1.267,1.262-1.757,3.156-1.563,5.443c-0.09,1.878-0.321,3.591-0.679,5.173L45.834,31.924c-4.904,1.393-9.616,1.487-12.147,1.393
	c-5.349-1.67-9.869-1.409-12.484,1.208c-5.802,5.799-0.066,20.937,12.813,33.817c12.872,12.88,28.008,18.61,33.81,12.809
	c2.205-2.21,2.747-5.772,1.853-10.052l0.051,0.052c0,0-0.924-7.357,1.358-14.878l15.043-15.044c1.819-0.452,3.836-0.74,6.069-0.808
	c2.243,0.174,4.101-0.313,5.354-1.565C101.691,34.716,97.545,23.856,88.295,14.604z"/>
</svg>
