<?xml version="1.0" encoding="utf-8"?>
<!-- Generator: Adobe Illustrator 16.0.3, SVG Export Plug-In . SVG Version: 6.00 Build 0)  -->
<!DOCTYPE svg PUBLIC "-//W3C//DTD SVG 1.1//EN" "http://www.w3.org/Graphics/SVG/1.1/DTD/svg11.dtd">
<svg version="1.1" id="Layer_1" xmlns="http://www.w3.org/2000/svg" xmlns:xlink="http://www.w3.org/1999/xlink" x="0px" y="0px"
	 width="100px" height="100px" viewBox="0 0 100 100" enable-background="new 0 0 100 100" xml:space="preserve">
<path fill="#ACACAC" d="M75.887,54.475C72.063,50.078,67.54,51,62.328,46.157c-2.586-2.403-2.34-17.358-2.34-17.358
	s-0.194-12.967,2.462-15.624c1.836-1.832,5.06-2.306,6.938-4.15C69.406,9.012,69.418,9,69.432,8.983
	c0.405-0.406,0.734-0.884,0.978-1.451c0.03-0.06,0.063-0.106,0.084-0.165c0.165-0.432,0.254-0.939,0.301-1.485
	c0.013-0.14,0.08-0.258,0.08-0.398c0-0.025-0.013-0.046-0.017-0.072c0.004-0.038,0.017-0.067,0.017-0.105
	c0-0.093-0.071-0.14-0.08-0.225C70.577,2.526,68.5,0.5,65.891,0.5H34.672c-2.61,0-4.688,2.026-4.903,4.582
	c-0.009,0.084-0.081,0.131-0.081,0.225c0,0.038,0.013,0.067,0.017,0.105c-0.004,0.026-0.017,0.047-0.017,0.072
	c0,0.14,0.068,0.258,0.081,0.398c0.046,0.545,0.135,1.053,0.3,1.485c0.021,0.059,0.055,0.105,0.085,0.165
	c0.241,0.567,0.571,1.045,0.977,1.451C31.144,9,31.156,9.012,31.173,9.025c1.878,1.845,5.102,2.318,6.938,4.15
	c2.657,2.657,2.462,15.624,2.462,15.624s0.246,14.955-2.34,17.358C33.022,51,28.5,50.078,24.676,54.475
	c-2.708,3.113-2.212,8.664-2.212,8.664h25.671v22.62l1.92,13.741h0.457l1.922-13.741v-22.62H78.1
	C78.1,63.139,78.594,57.588,75.887,54.475z"/>
</svg>
