<?xml version="1.0" encoding="utf-8"?>
<!-- Generator: Adobe Illustrator 16.0.3, SVG Export Plug-In . SVG Version: 6.00 Build 0)  -->
<!DOCTYPE svg PUBLIC "-//W3C//DTD SVG 1.1//EN" "http://www.w3.org/Graphics/SVG/1.1/DTD/svg11.dtd">
<svg version="1.1" id="Layer_1" xmlns="http://www.w3.org/2000/svg" xmlns:xlink="http://www.w3.org/1999/xlink" x="0px" y="0px"
	 width="100px" height="100px" viewBox="0 0 100 100" enable-background="new 0 0 100 100" xml:space="preserve">
<path fill="#ACACAC" d="M60.046,48.491L44.758,63.775L100,69.066L94.713,13.82L79.718,28.817
	c-8.574-5.905-18.776-9.216-29.342-9.242c-8.953-0.013-18.297,2.5-26.339,8.215c-2.503,1.76-4.84,3.822-6.977,6.151
	c2.739-0.949,5.648-1.428,8.642-1.408C36.669,32.58,48.64,38.391,60.046,48.491z M29.484,86.418v-8.361
	c0-10.328,2.053-17.287,4.584-21.76c2.563-4.475,5.479-6.766,8.846-8.224c1.667-0.695,3.463-1.142,5.378-1.333
	c-8.072-5.493-15.944-8.356-22.59-8.321c-6.853,0.056-12.426,2.747-16.792,9.079c-0.827,1.218-1.604,2.583-2.315,4.089
	c-0.193,0.543-0.379,1.082-0.557,1.635c-2.391,7.314-3.611,15.578-3.611,24.836v8.361H29.484z"/>
</svg>
