<?xml version="1.0" encoding="utf-8"?>
<!-- Generator: Adobe Illustrator 16.0.3, SVG Export Plug-In . SVG Version: 6.00 Build 0)  -->
<!DOCTYPE svg PUBLIC "-//W3C//DTD SVG 1.1//EN" "http://www.w3.org/Graphics/SVG/1.1/DTD/svg11.dtd">
<svg version="1.1" id="Layer_1" xmlns="http://www.w3.org/2000/svg" xmlns:xlink="http://www.w3.org/1999/xlink" x="0px" y="0px"
	 width="100px" height="100px" viewBox="0 0 100 100" enable-background="new 0 0 100 100" xml:space="preserve">
<path fill="#ACACAC" d="M19.42,91.809V5.869h33.199c8.719,0,4.518,20.669,4.518,20.669s20.16-4.898,20.419,4.347v27.901
	c2.031,0.035,4,0.342,5.868,0.868V23.126L62.013,1.72l-1.718-1.719H13.553v97.676h48.241c-1.789-1.691-3.319-3.666-4.482-5.868
	H19.42z M77.021,62.887c-10.161,0-18.402,8.24-18.402,18.405c0,10.158,8.241,18.398,18.402,18.398
	c10.158,0,18.402-8.24,18.402-18.398C95.423,71.127,87.179,62.887,77.021,62.887z M63.794,84.601v-6.624h26.449v6.624H63.794z"/>
</svg>
