<?xml version="1.0" encoding="utf-8"?>
<!-- Generator: Adobe Illustrator 16.0.3, SVG Export Plug-In . SVG Version: 6.00 Build 0)  -->
<!DOCTYPE svg PUBLIC "-//W3C//DTD SVG 1.1//EN" "http://www.w3.org/Graphics/SVG/1.1/DTD/svg11.dtd">
<svg version="1.1" id="Layer_1" xmlns="http://www.w3.org/2000/svg" xmlns:xlink="http://www.w3.org/1999/xlink" x="0px" y="0px"
	 width="100px" height="100px" viewBox="0 0 100 100" enable-background="new 0 0 100 100" xml:space="preserve">
<g id="Captions">
</g>
<g id="Your_Icon">
	<path fill="#ACACAC" d="M95.936,93.02H76.557h-1.322v-1.32V72.318c0-0.728-0.594-1.32-1.319-1.32H54.273h-1.32v-1.321v-19.38
		c0-0.727-0.594-1.321-1.322-1.321H32.252h-1.321v-1.321v-19.6c0-0.727-0.595-1.321-1.321-1.321H4.064
		c-0.727,0-1.321,0.594-1.321,1.321v3.524c0,0.727,0.595,1.321,1.321,1.321h19.379h1.322v1.321V53.82c0,0.727,0.594,1.32,1.321,1.32
		h19.379h1.321v1.322v19.379c0,0.727,0.595,1.321,1.321,1.321h19.64h1.319v1.321v19.379c0,0.728,0.597,1.322,1.322,1.322h25.545
		c0.728,0,1.322-0.596,1.322-1.322v-3.522C97.258,93.613,96.662,93.02,95.936,93.02z"/>
	<circle fill="#ACACAC" cx="66.633" cy="7.913" r="7.098"/>
	<path fill="#ACACAC" d="M51.119,26.215l6.449,3.559l6.449,3.558c0.637,0.351,1.51,0.159,1.938-0.427l1.51-2.059l2.293-3.124
		l1.703,5.377l1.306,4.117l0,0l0.399,1.259l-6.271,3.895l-5.146,3.196c-0.619,0.384-1.123,1.292-1.123,2.019l0.004,9.177v9.18
		c0,0.727,0.597,1.319,1.322,1.319h1.981l1.982-0.001c0.727,0,1.32-0.595,1.32-1.32l-0.002-7.338l-0.002-8.66l3.703-2.245
		l2.571-1.56h0.003l1.129-0.685l4.098,14.114l0.072,0.25c0.203,0.697,0.875,1.578,1.496,1.957l6.246,3.806l6.245,3.807
		c0.619,0.378,1.438,0.181,1.816-0.44l2.062-3.385c0.377-0.621,0.18-1.438-0.441-1.815l-5.043-3.073L86.15,57.6
		c-0.002,0-0.002,0-0.002,0l-1.127-0.688l-4.647-16.108l-4.281-14.838c0-0.001,0-0.001,0-0.002l-0.364-1.267l1.301,0.227l0,0
		l1.441,0.25l2.743,0.477l2.25,5.142l1.722,3.931c0.291,0.666,1.073,0.972,1.739,0.681l1.814-0.795l1.815-0.794
		c0.666-0.292,0.973-1.075,0.682-1.74l-2.434-5.558l-2.432-5.557c-0.293-0.666-1.117-1.308-1.834-1.426l-6.881-1.138l-5.197-0.86
		c-1.9-0.187-3.713,0.501-4.805,1.957l-3.588,4.83c0,0.001-0.002,0.001-0.002,0.002l-0.785,1.058l-5.064-2.794l-3.908-2.156
		c-0.635-0.351-1.442-0.118-1.795,0.518l-0.957,1.737l-0.957,1.735C50.25,25.057,50.483,25.864,51.119,26.215z"/>
</g>
</svg>
