<?xml version="1.0" encoding="utf-8"?>
<!-- Generator: Adobe Illustrator 16.0.3, SVG Export Plug-In . SVG Version: 6.00 Build 0)  -->
<!DOCTYPE svg PUBLIC "-//W3C//DTD SVG 1.1//EN" "http://www.w3.org/Graphics/SVG/1.1/DTD/svg11.dtd">
<svg version="1.1" id="Layer_1" xmlns="http://www.w3.org/2000/svg" xmlns:xlink="http://www.w3.org/1999/xlink" x="0px" y="0px"
	 width="100px" height="100px" viewBox="0 0 100 100" enable-background="new 0 0 100 100" xml:space="preserve">
<path fill="#ACACAC" d="M76.648,32.783c3.005-0.023,5.923,0.457,8.679,1.41c-2.152-2.335-4.498-4.406-7.006-6.171
	c-8.064-5.73-17.445-8.254-26.423-8.238c-10.604,0.023-20.839,3.344-29.442,9.268L7.408,14.007L2.108,69.434l55.422-5.308
	L42.2,48.792C53.633,38.66,65.645,32.831,76.648,32.783z M100,86.844v-8.39c0-9.287-1.223-17.58-3.615-24.92
	c-0.183-0.549-0.373-1.092-0.569-1.637c-0.71-1.515-1.487-2.881-2.319-4.101c-4.375-6.357-9.974-9.056-16.848-9.113
	c-6.663-0.031-14.569,2.841-22.664,8.35c1.916,0.189,3.732,0.638,5.397,1.335c3.375,1.463,6.303,3.763,8.876,8.253
	c2.537,4.488,4.592,11.467,4.596,21.832v8.39H100z"/>
</svg>
