<?xml version="1.0" encoding="utf-8"?>
<!-- Generator: Adobe Illustrator 16.0.3, SVG Export Plug-In . SVG Version: 6.00 Build 0)  -->
<!DOCTYPE svg PUBLIC "-//W3C//DTD SVG 1.1//EN" "http://www.w3.org/Graphics/SVG/1.1/DTD/svg11.dtd">
<svg version="1.1" id="Layer_1" xmlns="http://www.w3.org/2000/svg" xmlns:xlink="http://www.w3.org/1999/xlink" x="0px" y="0px"
	 width="100px" height="100px" viewBox="0 0 100 100" enable-background="new 0 0 100 100" xml:space="preserve">
<path fill="#ACACAC" d="M97.781,85.123l-0.578-0.576l0.004-0.007L73.949,61.279c3.23-5.563,5.107-12.018,5.148-18.913
	C79.238,21.247,62.23,4.024,41.117,3.892c-0.089,0-0.165,0-0.254,0c-20.994,0-38.088,16.957-38.221,37.984
	C2.509,62.991,19.515,80.214,40.63,80.351c0.082,0,0.163,0,0.247,0c7.017,0,13.595-1.901,19.25-5.205l23.238,23.236l0,0l0.578,0.583
	c1.762,1.756,4.611,1.756,6.365,0l7.473-7.482C99.547,89.729,99.547,86.879,97.781,85.123z M60.938,62.324
	c-5.365,5.34-12.494,8.271-20.06,8.271h-0.188C24.988,70.498,12.291,57.64,12.395,41.938c0.095-15.605,12.866-28.295,28.473-28.295
	h0.191c7.603,0.048,14.734,3.052,20.078,8.467c5.346,5.411,8.262,12.586,8.213,20.19C69.301,49.881,66.316,56.987,60.938,62.324z
	 M22.25,47.762h38.342V36.033H22.25V47.762z"/>
</svg>
