<?xml version="1.0" encoding="utf-8"?>
<!-- Generator: Adobe Illustrator 16.0.3, SVG Export Plug-In . SVG Version: 6.00 Build 0)  -->
<!DOCTYPE svg PUBLIC "-//W3C//DTD SVG 1.1//EN" "http://www.w3.org/Graphics/SVG/1.1/DTD/svg11.dtd">
<svg version="1.1" id="Layer_1" xmlns="http://www.w3.org/2000/svg" xmlns:xlink="http://www.w3.org/1999/xlink" x="0px" y="0px"
	 width="100px" height="100px" viewBox="0 0 100 100" enable-background="new 0 0 100 100" xml:space="preserve">
<path fill="#ACACAC" d="M97.809,84.667l-0.574-0.578l0,0L74.303,61.156c3.188-5.492,5.034-11.854,5.082-18.653
	C79.52,21.684,62.75,4.699,41.935,4.568c-0.086,0-0.167,0-0.248,0C20.981,4.568,4.127,21.288,4,42.019
	c-0.131,20.82,16.637,37.802,37.451,37.938c0.082,0,0.158,0,0.245,0c6.922,0,13.401-1.879,18.979-5.135l22.91,22.912h0.005
	l0.575,0.57c1.729,1.737,4.534,1.729,6.277,0l7.365-7.366C99.537,89.201,99.537,86.395,97.809,84.667z M61.484,62.183
	c-5.302,5.266-12.326,8.163-19.788,8.163h-0.183c-15.485-0.102-27.999-12.774-27.902-28.267c0.047-7.462,2.993-14.475,8.293-19.736
	c5.297-5.258,12.318-8.16,19.783-8.16h0.188c7.498,0.047,14.532,3.013,19.803,8.35c5.267,5.341,8.145,12.409,8.093,19.911
	C69.722,49.913,66.784,56.926,61.484,62.183z M48.016,22.469H36.451v13.124H23.327v11.56h13.124v13.125h11.565V47.152h13.123v-11.56
	H48.016V22.469z"/>
</svg>
